<svg id="svg" version="1.1" xmlns="http://www.w3.org/2000/svg" xmlns:xlink="http://www.w3.org/1999/xlink"  viewBox="0, 0, 400,400"><g id="svgg"><path id="path0" d="M198.254 6.758 C 197.320 9.147,194.991 15.229,193.077 20.274 C 191.164 25.318,188.775 31.545,187.770 34.111 C 186.765 36.677,184.089 43.628,181.824 49.558 C 172.408 74.207,170.046 80.366,167.012 88.174 C 165.259 92.687,162.166 100.724,160.141 106.034 C 158.115 111.344,155.770 117.461,154.929 119.629 L 153.400 123.571 78.280 123.652 L 3.160 123.733 8.418 126.996 C 11.310 128.791,16.573 132.035,20.113 134.204 C 23.652 136.374,30.314 140.466,34.916 143.298 C 39.517 146.130,45.830 150.002,48.943 151.903 C 52.056 153.803,56.111 156.298,57.953 157.447 C 59.796 158.596,66.444 162.688,72.727 166.542 C 79.010 170.395,87.225 175.445,90.981 177.763 C 94.737 180.082,101.398 184.182,105.784 186.875 C 122.411 197.086,124.380 198.299,124.488 198.402 C 124.617 198.523,121.720 206.271,116.913 218.665 C 115.059 223.443,111.976 231.480,110.061 236.525 C 108.146 241.569,106.114 246.854,105.546 248.270 C 104.977 249.686,102.805 255.334,100.717 260.821 C 98.630 266.307,95.694 273.982,94.193 277.876 C 81.790 310.043,78.246 319.353,78.356 319.480 C 78.399 319.531,80.156 318.505,82.258 317.200 C 84.361 315.895,87.747 313.811,89.783 312.569 C 91.818 311.326,98.262 307.369,104.103 303.776 C 118.083 295.176,127.087 289.641,137.088 283.500 C 152.354 274.125,170.679 262.856,178.117 258.267 C 182.188 255.755,186.098 253.356,186.806 252.934 C 187.514 252.512,190.750 250.519,193.996 248.506 C 197.450 246.364,200.097 244.922,200.376 245.029 C 200.638 245.129,202.182 246.064,203.805 247.107 C 205.429 248.149,210.378 251.216,214.803 253.922 C 222.359 258.542,227.493 261.694,244.730 272.298 C 248.624 274.693,254.382 278.231,257.526 280.161 C 260.669 282.090,267.000 285.986,271.594 288.817 C 276.188 291.649,282.780 295.704,286.242 297.828 C 292.092 301.417,296.849 304.343,314.689 315.324 C 318.476 317.655,321.615 319.522,321.664 319.473 C 321.714 319.423,319.869 314.461,317.566 308.445 C 315.263 302.428,311.745 293.234,309.749 288.013 C 307.753 282.792,305.213 276.203,304.105 273.371 C 302.997 270.539,300.606 264.312,298.791 259.533 C 296.976 254.755,294.012 247.007,292.205 242.317 C 290.397 237.627,287.327 229.662,285.383 224.618 C 279.571 209.542,275.411 198.493,275.521 198.427 C 275.577 198.392,276.275 197.944,277.072 197.431 C 277.868 196.918,281.271 194.814,284.634 192.757 C 290.687 189.053,301.120 182.642,317.619 172.485 C 322.309 169.597,329.260 165.326,333.065 162.993 C 340.745 158.285,347.794 153.949,358.166 147.554 C 361.971 145.208,370.225 140.137,376.508 136.286 C 382.792 132.435,389.942 128.035,392.399 126.508 L 396.866 123.733 321.750 123.652 L 246.634 123.571 242.556 113.032 C 240.314 107.236,237.012 98.656,235.218 93.966 C 225.755 69.216,222.833 61.594,220.167 54.706 C 215.953 43.818,210.069 28.487,205.409 16.251 C 203.185 10.410,201.047 4.907,200.658 4.023 L 199.951 2.414 198.254 6.758 M202.389 55.114 C 203.527 58.164,205.530 63.411,206.842 66.774 C 208.155 70.137,210.938 77.377,213.029 82.864 C 215.119 88.351,217.510 94.578,218.341 96.702 C 219.172 98.825,221.564 105.052,223.655 110.539 C 225.746 116.026,228.823 124.063,230.492 128.399 C 232.161 132.735,233.617 136.537,233.728 136.846 C 233.919 137.380,236.827 137.409,288.646 137.409 C 320.539 137.409,343.363 137.529,343.363 137.697 C 343.363 137.855,343.145 138.068,342.878 138.170 C 342.611 138.273,339.389 140.224,335.718 142.507 C 332.046 144.790,326.146 148.433,322.607 150.603 C 319.067 152.773,313.057 156.463,309.252 158.803 C 300.011 164.485,285.394 173.473,276.106 179.186 C 271.947 181.744,265.541 185.663,261.870 187.896 C 258.199 190.128,255.195 192.148,255.193 192.383 C 255.191 192.619,256.215 195.442,257.469 198.658 C 258.724 201.874,261.266 208.488,263.119 213.355 C 264.972 218.222,267.923 225.897,269.675 230.410 C 272.799 238.455,276.638 248.464,283.376 266.130 C 285.233 270.998,287.199 276.108,287.745 277.486 C 288.292 278.865,288.665 280.067,288.574 280.157 C 288.484 280.248,284.374 277.837,279.442 274.799 C 274.510 271.761,266.670 266.939,262.021 264.083 C 257.371 261.227,251.724 257.744,249.471 256.344 C 247.217 254.944,242.478 252.033,238.938 249.874 C 230.853 244.944,221.199 239.010,214.320 234.742 C 204.974 228.942,200.404 226.227,199.991 226.227 C 199.770 226.227,197.147 227.726,194.163 229.559 C 191.179 231.391,185.479 234.887,181.496 237.328 C 177.514 239.768,170.853 243.862,166.693 246.426 C 162.534 248.989,156.270 252.842,152.773 254.988 C 149.276 257.134,143.990 260.391,141.027 262.225 C 138.064 264.060,132.381 267.551,128.399 269.984 C 124.417 272.417,119.008 275.741,116.380 277.370 C 113.751 279.000,111.539 280.270,111.462 280.194 C 111.315 280.047,115.537 268.741,120.138 256.959 C 122.812 250.112,124.786 244.974,133.547 222.043 C 135.812 216.114,139.211 207.289,141.098 202.431 C 142.986 197.573,144.601 193.229,144.686 192.777 C 144.831 192.012,144.436 191.709,138.954 188.390 C 133.409 185.033,128.324 181.913,116.975 174.906 C 114.320 173.267,103.242 166.458,92.357 159.775 C 81.472 153.093,69.190 145.536,65.064 142.982 C 60.938 140.428,57.354 138.259,57.099 138.162 C 56.845 138.064,56.637 137.855,56.637 137.697 C 56.637 137.529,79.461 137.409,111.354 137.409 C 163.174 137.409,166.081 137.380,166.269 136.846 C 166.379 136.537,167.981 132.373,169.830 127.595 C 171.680 122.816,175.047 114.055,177.313 108.126 C 179.579 102.196,182.899 93.508,184.692 88.817 C 186.484 84.127,189.052 77.466,190.399 74.014 C 191.746 70.563,194.347 63.782,196.179 58.945 C 199.670 49.728,199.743 49.554,200.099 49.563 C 200.222 49.566,201.252 52.063,202.389 55.114 " stroke="none" fill="#6bd2b3" fill-rule="evenodd"></path><path id="path1" d="M197.613 5.551 C 196.487 8.604,195.214 11.872,194.786 12.814 C 194.358 13.755,191.906 20.124,189.338 26.967 C 186.770 33.811,184.529 39.578,184.359 39.784 C 184.188 39.989,184.076 40.281,184.110 40.433 C 184.144 40.584,183.800 41.515,183.346 42.502 C 182.891 43.489,182.085 45.516,181.554 47.007 C 181.023 48.498,180.058 51.094,179.410 52.776 C 178.761 54.457,177.575 57.643,176.773 59.855 C 175.971 62.068,174.950 64.674,174.503 65.648 C 173.445 67.953,173.427 68.001,166.986 85.278 C 165.502 89.260,164.200 92.591,164.094 92.679 C 163.987 92.767,163.672 93.492,163.393 94.288 C 162.415 97.085,154.135 118.917,153.690 119.871 C 153.443 120.402,153.084 121.235,152.894 121.722 L 152.548 122.607 76.274 122.607 C 32.172 122.607,0.000 122.727,0.000 122.892 C 0.000 123.049,2.715 124.806,6.034 126.796 C 9.352 128.786,12.502 130.735,13.033 131.127 C 13.564 131.519,16.967 133.619,20.595 135.794 C 24.224 137.970,28.158 140.379,29.338 141.148 C 30.518 141.917,33.776 143.919,36.578 145.597 C 41.973 148.827,48.357 152.801,49.015 153.339 C 49.231 153.516,49.913 153.937,50.529 154.275 C 52.402 155.302,62.258 161.315,62.430 161.535 C 62.518 161.649,64.763 163.031,67.418 164.607 C 70.072 166.183,75.648 169.594,79.807 172.187 C 83.966 174.780,88.817 177.732,90.587 178.748 C 92.357 179.763,94.095 180.849,94.449 181.160 C 94.803 181.471,98.496 183.780,102.655 186.291 C 110.548 191.055,119.810 196.756,121.500 197.891 C 122.042 198.254,122.658 198.552,122.868 198.552 C 123.378 198.552,123.351 199.263,122.797 200.376 C 121.923 202.131,118.764 210.360,115.837 218.504 C 114.467 222.318,113.514 224.762,112.650 226.684 C 111.936 228.272,103.757 249.896,103.055 252.051 C 102.781 252.892,102.434 253.580,102.284 253.580 C 102.134 253.580,102.011 253.732,102.011 253.917 C 102.011 254.339,93.979 275.599,90.832 283.508 C 89.254 287.473,86.128 295.723,83.821 302.011 C 83.172 303.781,82.379 305.809,82.058 306.516 C 80.435 310.103,76.182 321.502,76.389 321.710 C 76.477 321.798,78.013 320.986,79.802 319.905 C 81.591 318.825,83.115 317.940,83.188 317.940 C 83.261 317.940,86.404 316.011,90.172 313.652 C 93.940 311.294,98.906 308.234,101.207 306.853 C 106.030 303.959,108.023 302.706,108.930 302.000 C 109.284 301.725,110.732 300.830,112.148 300.012 C 114.567 298.615,120.327 295.092,129.739 289.254 C 131.980 287.863,133.894 286.726,133.992 286.726 C 134.163 286.726,138.104 284.319,140.788 282.574 C 141.496 282.114,142.356 281.484,142.699 281.175 C 143.043 280.865,143.443 280.611,143.588 280.611 C 143.734 280.611,147.041 278.656,150.937 276.267 C 154.833 273.878,158.162 271.923,158.335 271.923 C 158.507 271.923,158.648 271.794,158.648 271.638 C 158.648 271.385,160.784 270.021,164.119 268.144 C 166.007 267.082,170.882 264.088,173.773 262.217 C 175.278 261.243,179.115 258.886,182.301 256.979 C 185.487 255.072,188.696 253.093,189.433 252.581 C 190.170 252.068,190.918 251.649,191.096 251.649 C 191.273 251.649,191.467 251.514,191.526 251.348 C 191.585 251.182,193.226 250.124,195.173 248.996 C 197.120 247.868,199.015 246.753,199.383 246.518 C 199.980 246.138,200.257 246.220,201.884 247.261 C 202.890 247.905,203.780 248.431,203.862 248.431 C 204.179 248.431,208.373 251.101,208.474 251.368 C 208.533 251.523,208.787 251.649,209.037 251.649 C 209.288 251.649,209.493 251.777,209.493 251.934 C 209.493 252.090,209.747 252.302,210.056 252.404 C 210.605 252.586,220.330 258.508,228.678 263.742 C 230.958 265.172,233.331 266.620,233.950 266.960 C 234.570 267.300,235.125 267.687,235.184 267.820 C 235.243 267.953,235.460 268.072,235.666 268.085 C 235.873 268.099,237.229 268.859,238.679 269.775 C 246.396 274.647,256.146 280.611,256.394 280.611 C 256.549 280.611,256.957 280.869,257.301 281.183 C 258.064 281.883,263.382 285.235,264.602 285.786 C 265.088 286.006,265.487 286.297,265.487 286.434 C 265.487 286.570,265.813 286.785,266.211 286.910 C 266.609 287.035,270.338 289.270,274.497 291.876 C 278.656 294.482,283.870 297.669,286.082 298.957 C 288.294 300.245,290.252 301.459,290.433 301.655 C 290.613 301.851,291.120 302.221,291.559 302.478 C 295.097 304.545,307.549 312.145,309.666 313.530 C 313.668 316.147,323.447 321.873,323.620 321.701 C 323.826 321.495,319.632 310.334,317.793 306.195 C 317.557 305.664,316.831 303.781,316.180 302.011 C 312.329 291.544,308.335 281.051,307.483 279.163 C 306.954 277.990,305.022 272.955,302.854 267.096 C 300.007 259.404,297.965 254.095,297.344 252.776 C 297.011 252.068,294.909 246.565,292.671 240.547 C 290.434 234.529,288.348 229.027,288.036 228.319 C 286.844 225.618,285.019 220.910,281.550 211.585 C 279.574 206.275,277.686 201.361,277.354 200.664 C 276.522 198.919,276.564 198.773,278.117 197.995 C 278.870 197.618,281.802 195.860,284.634 194.090 C 292.067 189.442,297.054 186.385,300.724 184.229 C 302.494 183.190,304.679 181.787,305.580 181.113 C 306.481 180.439,307.312 179.887,307.426 179.887 C 307.541 179.887,310.610 178.077,314.246 175.865 C 317.883 173.652,320.932 171.842,321.022 171.842 C 321.112 171.842,321.458 171.589,321.792 171.279 C 322.126 170.969,325.776 168.696,329.904 166.228 C 334.032 163.759,337.482 161.642,337.570 161.522 C 337.659 161.402,339.614 160.168,341.915 158.779 C 345.840 156.411,350.510 153.548,356.566 149.799 C 359.704 147.856,368.949 142.228,370.072 141.577 C 370.515 141.320,370.949 141.024,371.038 140.918 C 371.126 140.812,374.529 138.729,378.600 136.289 C 382.671 133.850,386.653 131.392,387.450 130.826 C 388.246 130.261,389.622 129.390,390.507 128.890 C 394.080 126.871,400.000 123.117,400.000 122.870 C 400.000 122.725,365.687 122.607,323.748 122.607 L 247.496 122.607 246.807 121.078 C 246.428 120.237,244.046 114.030,241.513 107.285 C 238.981 100.539,236.674 94.566,236.386 94.010 C 236.099 93.455,235.977 92.999,236.114 92.996 C 236.251 92.993,236.200 92.885,235.999 92.755 C 235.799 92.624,235.414 91.866,235.143 91.070 C 234.060 87.881,229.579 76.018,226.878 69.187 C 225.303 65.205,223.120 59.558,222.028 56.637 C 220.227 51.823,219.040 48.646,216.377 41.512 C 215.882 40.185,215.391 39.027,215.287 38.938 C 215.096 38.775,213.453 34.478,209.015 22.526 C 206.197 14.937,205.225 12.455,204.983 12.228 C 204.889 12.140,203.801 9.353,202.567 6.035 C 201.332 2.718,200.173 0.003,199.992 0.002 C 199.811 0.001,198.740 2.498,197.613 5.551 M203.586 10.862 C 206.642 18.921,208.090 22.691,215.849 42.800 C 217.522 47.136,220.599 55.173,222.686 60.660 C 224.774 66.146,227.163 72.373,227.995 74.497 C 228.827 76.621,231.361 83.210,233.628 89.139 C 235.894 95.068,239.336 104.047,241.278 109.091 C 243.219 114.135,245.221 119.385,245.727 120.756 L 246.646 123.250 322.107 123.250 C 395.954 123.250,397.555 123.263,396.934 123.855 C 396.585 124.187,393.331 126.265,389.702 128.471 C 386.074 130.678,379.268 134.846,374.578 137.734 C 369.887 140.622,361.995 145.474,357.039 148.518 C 352.084 151.561,344.553 156.192,340.306 158.810 C 336.058 161.427,329.976 165.157,326.790 167.098 C 323.604 169.040,318.608 172.115,315.688 173.931 C 312.767 175.747,305.599 180.163,299.759 183.745 C 280.344 195.650,276.040 198.349,275.904 198.704 C 275.830 198.898,277.014 202.237,278.535 206.125 C 280.057 210.013,282.534 216.452,284.040 220.434 C 285.546 224.417,287.990 230.788,289.470 234.594 C 290.950 238.399,294.210 246.870,296.714 253.419 C 299.218 259.968,303.268 270.539,305.713 276.911 C 308.159 283.282,311.848 292.912,313.911 298.311 C 315.973 303.709,318.671 310.714,319.905 313.879 C 321.139 317.043,322.083 319.697,322.003 319.778 C 321.795 319.986,321.043 319.556,314.562 315.526 C 311.376 313.545,303.628 308.771,297.345 304.917 C 291.062 301.063,283.459 296.382,280.451 294.514 C 277.442 292.646,273.315 290.113,271.279 288.886 C 267.605 286.669,259.903 281.929,249.718 275.615 C 246.798 273.804,241.223 270.377,237.329 267.998 C 233.435 265.618,226.774 261.528,222.526 258.907 C 208.947 250.530,200.201 245.213,199.999 245.213 C 199.891 245.213,196.226 247.414,191.856 250.104 C 187.486 252.793,181.665 256.356,178.922 258.020 C 176.179 259.685,172.803 261.767,171.420 262.647 C 170.038 263.528,165.042 266.606,160.318 269.489 C 155.594 272.372,148.689 276.607,144.972 278.901 C 137.814 283.319,123.300 292.244,114.722 297.502 C 111.891 299.238,106.822 302.359,103.459 304.438 C 97.337 308.221,89.535 313.022,82.138 317.556 C 79.968 318.886,78.127 319.908,78.046 319.826 C 77.902 319.682,80.253 313.439,88.815 291.231 C 93.149 279.991,96.682 270.773,103.618 252.615 C 105.883 246.685,108.558 239.735,109.563 237.168 C 110.568 234.602,112.836 228.682,114.603 224.014 C 116.370 219.345,118.543 213.697,119.431 211.463 C 121.775 205.574,124.218 199.034,124.203 198.689 C 124.195 198.525,122.494 197.364,120.421 196.109 C 118.349 194.854,112.237 191.108,106.838 187.785 C 101.440 184.461,94.489 180.189,91.392 178.290 C 88.294 176.391,83.154 173.233,79.968 171.272 C 76.782 169.311,70.805 165.633,66.685 163.097 C 62.566 160.562,56.122 156.592,52.365 154.276 C 48.609 151.959,40.611 147.046,34.594 143.357 C 24.881 137.404,20.515 134.718,6.525 126.089 C 4.539 124.864,2.829 123.724,2.725 123.556 C 2.606 123.363,30.426 123.250,77.938 123.250 L 153.339 123.249 155.069 118.664 C 156.020 116.142,158.585 109.445,160.769 103.781 C 162.953 98.117,166.352 89.284,168.322 84.151 C 176.590 62.610,180.978 51.160,184.048 43.121 C 185.839 38.431,188.544 31.408,190.058 27.514 C 191.572 23.620,194.356 16.345,196.244 11.347 C 198.133 6.349,199.823 2.258,200.000 2.257 C 200.177 2.256,201.791 6.128,203.586 10.862 M198.401 53.815 C 197.559 55.986,194.873 62.977,192.432 69.348 C 189.991 75.720,185.821 86.581,183.165 93.484 C 178.290 106.153,174.811 115.223,169.535 129.023 C 167.948 133.172,166.511 136.828,166.339 137.148 C 166.041 137.705,163.714 137.733,111.599 137.811 L 57.170 137.892 62.133 140.929 C 64.862 142.600,69.123 145.223,71.601 146.758 C 74.079 148.294,79.002 151.327,82.542 153.498 C 98.894 163.528,105.026 167.293,112.953 172.169 C 117.643 175.055,124.666 179.365,128.560 181.748 C 135.962 186.277,144.882 191.802,145.097 191.989 C 145.240 192.113,141.588 201.937,137.334 212.872 C 135.750 216.943,133.082 223.894,131.404 228.319 C 129.726 232.743,127.139 239.477,125.654 243.282 C 124.169 247.088,121.292 254.545,119.262 259.855 C 117.231 265.165,114.682 271.806,113.598 274.612 C 111.337 280.467,111.345 280.241,113.443 278.922 C 115.098 277.880,124.463 272.122,137.892 263.888 C 146.341 258.707,153.262 254.451,164.602 247.460 C 168.673 244.950,176.164 240.341,181.249 237.217 C 186.335 234.093,192.489 230.306,194.926 228.801 C 199.950 225.699,200.152 225.627,201.367 226.489 C 201.854 226.834,205.800 229.283,210.137 231.930 C 218.856 237.253,226.165 241.746,235.398 247.459 C 238.761 249.540,243.250 252.297,245.374 253.586 C 247.498 254.875,251.263 257.189,253.741 258.729 C 256.219 260.269,262.591 264.186,267.900 267.434 C 273.210 270.681,279.941 274.820,282.859 276.631 C 285.776 278.443,288.208 279.880,288.263 279.825 C 288.393 279.695,283.755 267.502,274.608 243.926 C 273.269 240.475,270.321 232.800,268.058 226.870 C 265.795 220.941,262.356 211.963,260.416 206.919 C 255.544 194.246,254.757 192.116,254.902 191.993 C 255.092 191.831,265.206 185.583,271.762 181.577 C 274.948 179.630,280.595 176.165,284.312 173.877 C 288.029 171.589,294.328 167.715,298.311 165.269 C 302.293 162.823,309.027 158.683,313.274 156.069 C 321.469 151.025,332.415 144.296,338.915 140.306 L 342.847 137.892 288.387 137.811 L 233.926 137.729 233.346 136.363 C 233.027 135.611,231.273 131.086,229.448 126.307 C 227.624 121.529,225.124 115.012,223.894 111.826 C 222.663 108.640,219.803 101.183,217.536 95.253 C 215.270 89.324,212.595 82.373,211.591 79.807 C 210.587 77.241,208.340 71.376,206.598 66.774 C 203.086 57.498,200.221 50.154,200.047 49.980 C 199.984 49.917,199.244 51.643,198.401 53.815 M203.362 59.483 C 204.980 63.792,207.035 69.150,207.930 71.390 C 208.824 73.630,211.005 79.300,212.777 83.990 C 214.548 88.681,216.720 94.328,217.603 96.541 C 218.486 98.753,221.077 105.487,223.361 111.504 C 225.645 117.522,228.859 125.921,230.504 130.169 L 233.494 137.892 287.514 138.053 L 341.533 138.214 338.345 140.173 C 336.591 141.250,330.698 144.870,325.247 148.218 C 319.797 151.565,312.748 155.897,309.584 157.844 C 306.419 159.791,300.991 163.121,297.521 165.245 C 294.051 167.369,289.370 170.254,287.118 171.656 C 283.144 174.131,276.910 177.959,261.947 187.114 C 257.965 189.551,254.599 191.642,254.468 191.762 C 254.337 191.882,255.230 194.581,256.452 197.760 C 257.673 200.939,260.719 208.898,263.219 215.447 C 265.719 221.995,268.428 229.019,269.238 231.054 C 270.048 233.089,272.563 239.606,274.827 245.535 C 277.092 251.464,280.851 261.289,283.180 267.367 C 285.510 273.446,287.339 278.496,287.245 278.590 C 287.151 278.684,285.801 277.973,284.245 277.011 C 279.472 274.059,271.957 269.439,260.016 262.116 C 253.733 258.263,247.216 254.244,245.535 253.186 C 243.854 252.128,239.147 249.226,235.076 246.736 C 231.006 244.247,224.562 240.300,220.756 237.964 C 199.237 224.760,200.113 225.265,199.390 225.650 C 199.018 225.849,195.889 227.749,192.438 229.873 C 188.986 231.997,183.049 235.640,179.244 237.969 C 172.737 241.950,168.063 244.826,153.339 253.909 C 142.276 260.733,136.065 264.554,128.238 269.353 C 123.990 271.957,118.806 275.138,116.718 276.422 C 114.630 277.706,112.851 278.686,112.764 278.599 C 112.602 278.438,114.902 272.325,125.022 246.018 C 128.154 237.876,132.570 226.364,134.835 220.434 C 137.099 214.505,139.418 208.496,139.987 207.080 C 142.848 199.968,145.746 191.958,145.533 191.754 C 145.402 191.627,142.470 189.801,139.019 187.696 C 131.297 182.985,119.620 175.814,114.240 172.479 C 112.027 171.108,105.076 166.836,98.793 162.987 C 92.510 159.138,85.342 154.727,82.864 153.185 C 78.914 150.727,74.777 148.187,61.655 140.163 L 58.467 138.214 112.487 138.053 L 166.507 137.892 168.695 132.261 C 169.899 129.163,172.708 121.850,174.939 116.010 C 177.169 110.169,180.147 102.422,181.556 98.793 C 182.966 95.165,185.559 88.392,187.318 83.741 C 189.078 79.091,191.230 73.498,192.102 71.313 C 192.974 69.128,194.913 64.099,196.411 60.138 C 197.909 56.177,199.299 52.515,199.499 51.999 C 200.022 50.652,200.110 50.824,203.362 59.483 " stroke="none" fill="#2e578c" fill-rule="evenodd"></path><path id="path2" d="M197.962 56.718 C 196.905 59.417,194.808 64.883,193.302 68.866 C 191.796 72.848,189.522 78.785,188.250 82.060 C 186.978 85.334,183.912 93.298,181.437 99.759 C 170.220 129.031,168.009 134.792,167.330 136.524 L 166.605 138.373 112.993 138.454 L 59.380 138.536 65.008 141.951 C 68.103 143.829,75.270 148.228,80.933 151.726 C 86.597 155.224,94.706 160.214,98.954 162.815 C 103.202 165.416,110.153 169.688,114.401 172.309 C 118.648 174.930,125.093 178.886,128.721 181.100 C 146.030 191.661,146.113 191.717,145.733 192.690 C 145.545 193.171,143.680 198.053,141.589 203.540 C 136.323 217.358,130.235 233.223,126.462 242.961 C 124.714 247.474,121.984 254.570,120.397 258.729 C 118.809 262.888,116.479 268.952,115.218 272.205 C 113.958 275.457,112.978 278.170,113.042 278.233 C 113.105 278.297,114.523 277.500,116.192 276.463 C 117.862 275.425,128.134 269.112,139.019 262.434 C 149.903 255.755,160.981 248.947,163.636 247.304 C 171.759 242.279,183.285 235.187,189.381 231.463 C 192.566 229.518,196.243 227.259,197.551 226.445 C 200.242 224.770,199.754 224.710,203.701 227.203 C 205.028 228.041,209.735 230.941,214.159 233.647 C 222.271 238.609,226.330 241.102,244.248 252.128 C 249.646 255.450,257.321 260.165,261.303 262.605 C 265.286 265.045,272.667 269.580,277.706 272.682 C 282.745 275.785,286.919 278.272,286.981 278.210 C 287.043 278.148,286.203 275.803,285.113 272.999 C 282.046 265.104,274.056 244.306,259.048 205.149 C 256.538 198.600,254.359 192.923,254.207 192.534 C 253.905 191.761,254.889 191.102,271.279 181.104 C 274.907 178.891,281.352 174.938,285.599 172.319 C 289.847 169.699,296.798 165.426,301.046 162.821 C 305.294 160.216,311.810 156.213,315.527 153.926 C 319.244 151.638,326.398 147.239,331.426 144.151 L 340.567 138.536 286.968 138.454 L 233.369 138.373 233.043 137.489 C 232.864 137.003,230.158 129.944,227.030 121.802 C 223.903 113.660,219.851 103.089,218.027 98.311 C 216.203 93.532,213.670 86.943,212.397 83.669 C 211.124 80.394,208.710 74.095,207.033 69.670 C 203.249 59.689,200.145 51.810,199.997 51.810 C 199.935 51.810,199.019 54.019,197.962 56.718 " stroke="none" fill="#0c0c0c" fill-rule="evenodd"></path><path id="path3" d="M199.517 2.548 C 199.517 2.711,199.435 3.109,199.334 3.433 C 199.228 3.775,199.345 3.698,199.612 3.252 C 200.072 2.482,200.073 2.483,200.646 3.983 C 200.961 4.809,201.272 5.432,201.337 5.367 C 201.601 5.104,200.313 2.253,199.931 2.253 C 199.703 2.253,199.517 2.386,199.517 2.548 M207.946 22.848 C 208.728 25.145,210.253 28.954,210.351 28.856 C 210.493 28.713,208.269 22.792,207.978 22.537 C 207.870 22.442,207.856 22.582,207.946 22.848 M189.746 28.201 C 188.741 30.796,187.973 32.971,188.038 33.036 C 188.102 33.101,188.977 31.031,189.981 28.436 C 190.985 25.842,191.754 23.666,191.689 23.601 C 191.624 23.536,190.750 25.606,189.746 28.201 M211.287 31.537 C 211.405 31.979,211.636 32.558,211.800 32.824 C 212.007 33.159,212.033 33.061,211.883 32.502 C 211.765 32.060,211.534 31.480,211.370 31.215 C 211.162 30.879,211.137 30.977,211.287 31.537 M187.325 34.469 C 187.126 35.037,187.020 35.559,187.089 35.628 C 187.158 35.697,187.377 35.288,187.575 34.719 C 187.773 34.150,187.879 33.629,187.810 33.560 C 187.741 33.491,187.523 33.900,187.325 34.469 M217.984 49.075 C 218.932 51.775,221.522 58.231,221.618 58.135 C 221.757 57.996,218.241 48.854,217.951 48.601 C 217.845 48.507,217.859 48.721,217.984 49.075 M199.231 50.925 C 198.496 52.641,198.144 53.741,198.330 53.741 C 198.409 53.741,198.804 52.857,199.208 51.777 C 199.926 49.857,199.952 49.830,200.396 50.570 C 200.669 51.027,200.776 51.094,200.666 50.738 C 200.565 50.414,200.483 50.016,200.483 49.853 C 200.483 49.078,199.755 49.701,199.231 50.925 M200.989 52.132 C 201.107 52.574,201.338 53.154,201.502 53.419 C 201.710 53.755,201.735 53.656,201.585 53.097 C 201.467 52.655,201.236 52.076,201.072 51.810 C 200.865 51.475,200.839 51.573,200.989 52.132 M179.125 55.874 C 178.477 57.587,178.001 59.041,178.067 59.107 C 178.132 59.173,178.715 57.825,179.363 56.113 C 180.010 54.400,180.487 52.946,180.421 52.880 C 180.355 52.815,179.772 54.162,179.125 55.874 M197.622 55.064 C 197.424 55.633,197.318 56.154,197.387 56.223 C 197.456 56.292,197.674 55.883,197.873 55.314 C 198.071 54.745,198.177 54.224,198.108 54.155 C 198.039 54.086,197.820 54.495,197.622 55.064 M208.326 71.279 C 209.194 73.785,211.218 78.833,211.316 78.735 C 211.454 78.597,208.575 71.045,208.291 70.798 C 208.188 70.709,208.204 70.925,208.326 71.279 M189.097 77.270 C 188.269 79.423,187.648 81.239,187.716 81.307 C 187.783 81.374,188.516 79.669,189.343 77.516 C 190.170 75.364,190.791 73.548,190.723 73.480 C 190.656 73.413,189.924 75.118,189.097 77.270 M169.798 80.176 C 168.971 82.329,168.348 84.143,168.413 84.208 C 168.478 84.273,169.207 82.565,170.035 80.413 C 170.862 78.260,171.485 76.446,171.420 76.381 C 171.354 76.315,170.625 78.023,169.798 80.176 M229.185 78.198 C 229.967 80.495,231.492 84.304,231.590 84.206 C 231.732 84.063,229.508 78.142,229.217 77.887 C 229.109 77.792,229.095 77.932,229.185 78.198 M211.608 79.807 C 211.727 80.249,211.958 80.829,212.122 81.094 C 212.329 81.430,212.354 81.331,212.205 80.772 C 212.087 80.330,211.856 79.751,211.691 79.485 C 211.484 79.150,211.459 79.248,211.608 79.807 M167.377 86.444 C 166.994 87.447,166.734 88.322,166.800 88.388 C 166.867 88.454,167.235 87.688,167.619 86.685 C 168.002 85.683,168.262 84.808,168.196 84.742 C 168.129 84.675,167.761 85.441,167.377 86.444 M179.768 101.570 C 179.121 103.283,178.645 104.737,178.710 104.803 C 178.776 104.868,179.359 103.521,180.007 101.809 C 180.654 100.096,181.130 98.642,181.065 98.576 C 180.999 98.510,180.416 99.858,179.768 101.570 M218.946 98.954 C 219.832 101.514,221.839 106.506,221.941 106.405 C 222.085 106.261,219.220 98.746,218.921 98.484 C 218.812 98.389,218.823 98.600,218.946 98.954 M238.254 101.850 C 239.121 104.356,241.146 109.404,241.244 109.306 C 241.381 109.168,238.502 101.617,238.218 101.370 C 238.115 101.280,238.131 101.496,238.254 101.850 M160.293 104.943 C 160.095 105.512,159.989 106.034,160.058 106.102 C 160.127 106.171,160.345 105.762,160.543 105.194 C 160.742 104.625,160.848 104.103,160.779 104.034 C 160.710 103.966,160.491 104.375,160.293 104.943 M158.367 109.936 C 157.983 110.938,157.723 111.813,157.790 111.879 C 157.856 111.946,158.224 111.180,158.608 110.177 C 158.992 109.174,159.252 108.300,159.185 108.233 C 159.119 108.167,158.751 108.933,158.367 109.936 M241.559 110.377 C 241.673 110.819,242.036 111.760,242.364 112.468 C 242.693 113.177,242.868 113.396,242.753 112.954 C 242.639 112.512,242.276 111.571,241.948 110.862 C 241.619 110.153,241.444 109.935,241.559 110.377 M157.075 113.310 C 156.877 113.879,156.771 114.400,156.840 114.469 C 156.909 114.538,157.127 114.129,157.325 113.560 C 157.524 112.992,157.630 112.470,157.561 112.401 C 157.492 112.332,157.273 112.741,157.075 113.310 M2.574 123.372 C 2.574 123.439,2.819 123.692,3.119 123.935 C 3.487 124.234,3.585 124.247,3.422 123.975 C 3.230 123.655,18.400 123.557,78.421 123.492 L 153.660 123.410 78.117 123.330 C 36.569 123.286,2.574 123.305,2.574 123.372 M321.621 123.571 L 396.903 123.733 394.107 125.447 C 392.569 126.390,391.311 127.235,391.311 127.324 C 391.311 127.616,396.967 124.054,397.262 123.576 C 397.398 123.356,372.793 123.276,321.902 123.330 L 246.340 123.409 321.621 123.571 M228.541 123.894 C 229.323 126.190,230.848 129.999,230.946 129.902 C 231.088 129.759,228.865 123.838,228.573 123.583 C 228.465 123.488,228.451 123.628,228.541 123.894 M4.478 124.765 C 4.905 125.082,5.846 125.674,6.569 126.080 C 7.293 126.486,7.534 126.559,7.107 126.241 C 6.680 125.924,5.738 125.332,5.015 124.926 C 4.292 124.520,4.050 124.447,4.478 124.765 M168.833 130.055 C 168.006 132.208,167.383 134.022,167.447 134.087 C 167.512 134.152,168.242 132.444,169.069 130.292 C 169.896 128.140,170.520 126.325,170.454 126.260 C 170.389 126.195,169.659 127.903,168.833 130.055 M16.412 132.036 C 16.412 132.130,18.113 133.250,20.193 134.526 C 24.813 137.361,24.457 137.156,24.457 136.977 C 24.457 136.895,22.973 135.921,21.158 134.811 C 19.344 133.701,17.534 132.585,17.136 132.329 C 16.738 132.074,16.412 131.942,16.412 132.036 M231.882 132.582 C 232.000 133.025,232.231 133.604,232.395 133.870 C 232.603 134.205,232.628 134.107,232.478 133.548 C 232.360 133.105,232.129 132.526,231.965 132.261 C 231.758 131.925,231.732 132.023,231.882 132.582 M379.244 134.556 C 378.359 135.104,377.490 135.701,377.313 135.883 C 376.957 136.250,379.174 134.988,380.398 134.128 C 381.682 133.225,380.964 133.491,379.244 134.556 M166.729 135.514 C 166.531 136.083,166.425 136.605,166.494 136.674 C 166.563 136.742,166.781 136.333,166.980 135.765 C 167.178 135.196,167.284 134.674,167.215 134.606 C 167.146 134.537,166.927 134.946,166.729 135.514 M375.060 137.130 C 374.175 137.678,373.307 138.275,373.130 138.457 C 372.773 138.824,374.991 137.562,376.214 136.702 C 377.499 135.799,376.781 136.065,375.060 137.130 M25.261 137.576 C 25.615 137.864,26.195 138.242,26.549 138.416 L 27.192 138.732 26.549 138.208 C 26.195 137.920,25.615 137.542,25.261 137.368 L 24.618 137.052 25.261 137.576 M111.424 137.329 C 79.684 137.377,56.637 137.532,56.637 137.698 C 56.637 137.855,56.862 138.070,57.137 138.176 C 57.423 138.286,57.552 138.232,57.439 138.049 C 57.310 137.840,75.873 137.731,111.627 137.731 C 147.537 137.731,166.079 137.622,166.211 137.409 C 166.320 137.233,166.365 137.123,166.310 137.167 C 166.256 137.211,141.557 137.284,111.424 137.329 M233.839 137.490 C 233.921 137.623,258.461 137.731,288.373 137.731 C 324.127 137.731,342.690 137.840,342.561 138.049 C 342.448 138.232,342.577 138.286,342.863 138.176 C 343.138 138.070,343.363 137.856,343.363 137.699 C 343.363 137.534,320.165 137.378,288.526 137.331 C 258.366 137.286,233.757 137.357,233.839 137.490 M33.762 142.786 C 34.189 143.103,35.130 143.695,35.853 144.101 C 36.577 144.507,36.818 144.579,36.391 144.262 C 35.964 143.944,35.022 143.352,34.299 142.946 C 33.576 142.540,33.334 142.468,33.762 142.786 M363.797 144.048 C 362.204 145.038,360.756 146.004,360.579 146.193 C 360.402 146.383,360.619 146.321,361.062 146.056 C 365.357 143.480,367.261 142.209,366.774 142.242 C 366.730 142.245,365.390 143.058,363.797 144.048 M66.907 144.073 C 67.335 144.390,68.276 144.982,68.999 145.388 C 69.722 145.794,69.964 145.867,69.537 145.549 C 69.109 145.232,68.168 144.640,67.445 144.234 C 66.722 143.828,66.480 143.755,66.907 144.073 M330.652 145.335 C 329.059 146.326,327.611 147.291,327.434 147.481 C 327.257 147.670,327.474 147.608,327.916 147.343 C 332.212 144.767,334.115 143.496,333.628 143.529 C 333.584 143.532,332.245 144.345,330.652 145.335 M37.945 145.360 C 38.373 145.677,39.314 146.269,40.037 146.675 C 40.760 147.081,41.002 147.154,40.575 146.836 C 40.147 146.519,39.206 145.927,38.483 145.521 C 37.760 145.115,37.518 145.042,37.945 145.360 M71.091 146.647 C 71.518 146.965,72.459 147.557,73.183 147.963 C 73.906 148.369,74.148 148.441,73.720 148.124 C 73.293 147.806,72.351 147.214,71.628 146.808 C 70.905 146.402,70.663 146.330,71.091 146.647 M41.995 147.874 C 42.349 148.162,42.928 148.540,43.282 148.714 L 43.926 149.030 43.282 148.506 C 42.928 148.218,42.349 147.840,41.995 147.666 L 41.352 147.350 41.995 147.874 M82.542 153.666 C 82.896 153.955,83.475 154.333,83.829 154.506 L 84.473 154.822 83.829 154.298 C 83.475 154.010,82.896 153.632,82.542 153.458 L 81.899 153.142 82.542 153.666 M51.488 153.590 C 51.488 153.681,52.611 154.448,53.982 155.296 C 55.354 156.143,56.802 157.043,57.200 157.297 C 57.599 157.550,57.924 157.683,57.924 157.592 C 57.924 157.502,56.802 156.734,55.430 155.887 C 54.059 155.040,52.611 154.139,52.212 153.886 C 51.814 153.633,51.488 153.500,51.488 153.590 M345.455 155.311 C 342.935 156.878,340.929 158.321,342.397 157.511 C 343.874 156.696,348.512 153.761,348.512 153.641 C 348.512 153.413,348.480 153.430,345.455 155.311 M313.918 155.633 C 312.325 156.623,310.877 157.589,310.700 157.778 C 310.523 157.968,310.740 157.906,311.183 157.641 C 315.478 155.065,317.382 153.794,316.895 153.827 C 316.850 153.830,315.511 154.643,313.918 155.633 M85.250 155.336 C 85.677 155.653,86.619 156.245,87.342 156.651 C 88.065 157.057,88.307 157.130,87.879 156.812 C 87.452 156.495,86.511 155.903,85.788 155.497 C 85.065 155.091,84.823 155.018,85.250 155.336 M64.521 161.711 C 64.875 162.000,65.455 162.378,65.809 162.551 L 66.452 162.867 65.809 162.343 C 65.455 162.055,64.875 161.677,64.521 161.503 L 63.878 161.187 64.521 161.711 M97.800 163.059 C 98.228 163.377,99.169 163.969,99.892 164.375 C 100.615 164.781,100.857 164.853,100.430 164.535 C 100.002 164.218,99.061 163.626,98.338 163.220 C 97.615 162.814,97.373 162.742,97.800 163.059 M297.667 165.608 C 294.924 167.303,292.534 168.847,292.357 169.038 C 291.992 169.433,292.008 169.424,298.230 165.594 C 302.139 163.189,303.182 162.477,302.735 162.517 C 302.691 162.521,300.410 163.912,297.667 165.608 M329.525 165.122 C 327.490 166.375,325.680 167.558,325.503 167.750 C 325.326 167.942,325.543 167.880,325.986 167.612 C 332.246 163.827,333.819 162.801,333.307 162.838 C 333.262 162.841,331.561 163.869,329.525 165.122 M68.222 163.888 C 68.222 163.978,69.344 164.746,70.716 165.593 C 72.088 166.441,73.536 167.341,73.934 167.594 C 74.332 167.848,74.658 167.981,74.658 167.890 C 74.658 167.800,73.536 167.032,72.164 166.185 C 70.792 165.337,69.344 164.437,68.946 164.184 C 68.548 163.930,68.222 163.797,68.222 163.888 M101.984 165.633 C 102.411 165.951,103.352 166.543,104.076 166.949 C 104.799 167.355,105.041 167.427,104.613 167.110 C 104.186 166.792,103.244 166.200,102.521 165.794 C 101.798 165.388,101.556 165.316,101.984 165.633 M83.508 173.351 C 83.808 173.645,89.036 176.914,90.105 177.476 C 91.422 178.168,89.643 176.913,87.047 175.320 C 83.679 173.252,83.051 172.903,83.508 173.351 M115.527 173.864 C 115.527 173.954,116.649 174.722,118.021 175.569 C 119.393 176.417,120.841 177.317,121.239 177.570 C 121.637 177.823,121.963 177.957,121.963 177.866 C 121.963 177.775,120.841 177.008,119.469 176.161 C 118.097 175.313,116.649 174.413,116.251 174.159 C 115.853 173.906,115.527 173.773,115.527 173.864 M281.359 175.639 C 278.831 177.215,276.848 178.636,278.359 177.789 C 279.976 176.882,284.473 174.033,284.473 173.915 C 284.473 173.696,284.493 173.685,281.359 175.639 M311.987 175.906 C 310.394 176.897,308.946 177.862,308.769 178.052 C 308.592 178.241,308.809 178.179,309.252 177.914 C 313.547 175.338,315.451 174.068,314.964 174.100 C 314.920 174.103,313.580 174.916,311.987 175.906 M97.506 181.929 C 97.506 182.011,98.990 182.985,100.805 184.095 C 102.619 185.204,104.429 186.321,104.827 186.577 C 105.225 186.832,105.551 186.964,105.551 186.870 C 105.551 186.776,103.850 185.655,101.770 184.380 C 97.150 181.545,97.506 181.750,97.506 181.929 M301.287 182.499 C 300.190 183.201,299.835 183.673,300.805 183.140 C 301.543 182.734,302.700 181.840,302.494 181.834 C 302.405 181.831,301.862 182.130,301.287 182.499 M130.169 182.950 C 130.523 183.239,131.102 183.617,131.456 183.790 L 132.100 184.106 131.456 183.582 C 131.102 183.294,130.523 182.916,130.169 182.742 L 129.525 182.426 130.169 182.950 M265.487 185.395 C 263.451 186.649,261.641 187.831,261.464 188.023 C 261.287 188.215,261.504 188.153,261.947 187.886 C 268.207 184.101,269.781 183.074,269.268 183.111 C 269.224 183.114,267.522 184.142,265.487 185.395 M132.261 184.179 C 132.261 184.260,133.383 185.019,134.755 185.867 C 136.126 186.714,137.574 187.615,137.973 187.868 C 138.371 188.121,138.697 188.248,138.697 188.150 C 138.697 188.052,137.430 187.192,135.881 186.240 C 132.176 183.962,132.261 184.010,132.261 184.179 M296.541 185.401 C 295.656 185.948,294.787 186.545,294.610 186.728 C 294.254 187.094,296.471 185.833,297.694 184.973 C 298.979 184.069,298.261 184.336,296.541 185.401 M292.357 187.975 C 291.472 188.523,290.603 189.120,290.426 189.302 C 290.070 189.669,292.288 188.407,293.511 187.547 C 294.796 186.644,294.078 186.910,292.357 187.975 M107.965 188.421 C 108.319 188.709,108.898 189.087,109.252 189.261 L 109.895 189.577 109.252 189.053 C 108.898 188.765,108.319 188.387,107.965 188.213 L 107.321 187.897 107.965 188.421 M115.849 193.172 C 115.849 193.262,116.971 194.030,118.343 194.877 C 119.714 195.725,121.163 196.625,121.561 196.878 C 121.959 197.132,122.285 197.265,122.285 197.174 C 122.285 197.084,121.163 196.316,119.791 195.469 C 118.419 194.621,116.971 193.721,116.573 193.468 C 116.175 193.214,115.849 193.081,115.849 193.172 M281.094 194.893 C 279.501 195.883,278.053 196.849,277.876 197.038 C 277.699 197.228,277.916 197.166,278.359 196.900 C 282.654 194.325,284.558 193.054,284.071 193.087 C 284.027 193.090,282.687 193.902,281.094 194.893 M259.434 204.344 C 260.216 206.641,261.741 210.450,261.839 210.352 C 261.981 210.210,259.758 204.289,259.466 204.033 C 259.358 203.939,259.344 204.079,259.434 204.344 M139.381 206.798 C 138.997 207.801,138.737 208.675,138.804 208.742 C 138.870 208.808,139.238 208.042,139.622 207.039 C 140.006 206.037,140.265 205.162,140.199 205.096 C 140.133 205.029,139.764 205.795,139.381 206.798 M119.912 210.130 C 119.185 211.945,119.297 212.215,120.062 210.492 C 120.407 209.714,120.632 209.020,120.562 208.950 C 120.492 208.880,120.199 209.411,119.912 210.130 M136.965 213.071 C 136.138 215.223,135.514 217.037,135.580 217.103 C 135.645 217.168,136.375 215.460,137.201 213.307 C 138.028 211.155,138.651 209.340,138.586 209.276 C 138.522 209.211,137.792 210.919,136.965 213.071 M279.766 209.976 C 280.653 212.536,282.660 217.528,282.761 217.426 C 282.905 217.283,280.040 209.768,279.742 209.506 C 279.633 209.411,279.644 209.622,279.766 209.976 M117.657 215.967 C 116.829 218.119,116.206 219.934,116.271 219.999 C 116.337 220.064,117.066 218.356,117.893 216.204 C 118.720 214.051,119.343 212.237,119.278 212.172 C 119.213 212.107,118.484 213.815,117.657 215.967 M262.775 213.033 C 262.893 213.475,263.124 214.055,263.288 214.320 C 263.496 214.656,263.521 214.558,263.371 213.998 C 263.253 213.556,263.022 212.977,262.858 212.711 C 262.651 212.376,262.625 212.474,262.775 213.033 M198.296 226.687 C 197.712 227.099,197.133 227.550,197.008 227.688 C 196.722 228.006,197.492 227.585,198.602 226.818 C 199.071 226.493,199.701 226.227,200.000 226.227 C 200.299 226.227,200.929 226.493,201.398 226.818 C 202.573 227.630,203.057 227.898,203.057 227.737 C 203.057 227.419,200.449 225.906,199.926 225.921 C 199.613 225.930,198.879 226.274,198.296 226.687 M270.112 232.180 C 270.980 234.686,273.004 239.734,273.102 239.636 C 273.240 239.498,270.361 231.947,270.077 231.700 C 269.974 231.610,269.990 231.826,270.112 232.180 M184.071 235.439 C 181.327 237.134,178.938 238.678,178.761 238.869 C 178.396 239.264,178.411 239.255,184.634 235.425 C 188.543 233.020,189.585 232.308,189.139 232.348 C 189.095 232.353,186.814 233.743,184.071 235.439 M212.389 233.413 C 212.389 233.540,218.846 237.619,220.113 238.293 C 222.104 239.352,216.671 235.800,212.792 233.506 C 212.570 233.376,212.389 233.333,212.389 233.413 M127.320 238.181 C 126.493 240.334,125.870 242.148,125.935 242.213 C 126.000 242.278,126.730 240.570,127.557 238.417 C 128.384 236.265,129.007 234.451,128.942 234.386 C 128.876 234.320,128.147 236.028,127.320 238.181 M109.127 238.169 C 108.928 238.738,108.823 239.260,108.891 239.328 C 108.960 239.397,109.179 238.988,109.377 238.420 C 109.575 237.851,109.681 237.329,109.612 237.260 C 109.543 237.192,109.325 237.601,109.127 238.169 M290.329 237.490 C 291.133 239.827,293.288 245.194,293.384 245.098 C 293.526 244.956,290.656 237.439,290.361 237.181 C 290.252 237.086,290.238 237.224,290.329 237.490 M107.037 243.642 C 106.210 245.794,105.587 247.609,105.652 247.674 C 105.717 247.739,106.447 246.031,107.274 243.879 C 108.100 241.726,108.724 239.912,108.659 239.847 C 108.594 239.782,107.864 241.490,107.037 243.642 M273.394 240.708 C 273.513 241.150,273.744 241.730,273.908 241.995 C 274.115 242.331,274.140 242.232,273.991 241.673 C 273.873 241.231,273.642 240.652,273.477 240.386 C 273.270 240.051,273.245 240.149,273.394 240.708 M167.820 245.416 C 166.227 246.406,164.779 247.371,164.602 247.561 C 164.425 247.751,164.642 247.689,165.084 247.423 C 169.380 244.848,171.283 243.577,170.796 243.610 C 170.752 243.613,169.413 244.425,167.820 245.416 M229.123 243.695 C 229.123 243.785,230.245 244.553,231.617 245.400 C 232.989 246.248,234.437 247.148,234.835 247.401 C 235.233 247.654,235.559 247.788,235.559 247.697 C 235.559 247.606,234.437 246.839,233.065 245.992 C 231.693 245.144,230.245 244.244,229.847 243.991 C 229.449 243.737,229.123 243.604,229.123 243.695 M199.359 245.210 C 199.246 245.391,199.374 245.446,199.656 245.338 C 199.937 245.230,201.019 245.693,202.167 246.411 C 204.894 248.118,204.988 248.170,204.988 247.990 C 204.988 247.261,199.704 244.651,199.359 245.210 M197.104 246.543 C 196.219 247.091,195.350 247.688,195.173 247.870 C 194.817 248.237,197.034 246.975,198.258 246.115 C 199.542 245.212,198.824 245.478,197.104 246.543 M151.086 255.713 C 149.493 256.704,148.045 257.669,147.868 257.859 C 147.691 258.048,147.908 257.986,148.351 257.721 C 152.646 255.145,154.550 253.874,154.063 253.907 C 154.019 253.910,152.679 254.723,151.086 255.713 M181.657 256.035 C 179.138 257.602,177.132 259.045,178.600 258.235 C 180.077 257.421,184.714 254.485,184.714 254.365 C 184.714 254.137,184.683 254.154,181.657 256.035 M215.902 254.773 C 216.329 255.090,217.270 255.682,217.993 256.088 C 218.717 256.494,218.958 256.567,218.531 256.249 C 218.104 255.932,217.162 255.340,216.439 254.934 C 215.716 254.528,215.474 254.455,215.902 254.773 M247.466 254.962 C 247.466 255.055,248.371 255.698,249.477 256.390 C 252.191 258.089,252.293 258.146,252.293 257.971 C 252.293 257.887,251.533 257.351,250.603 256.780 C 249.674 256.208,248.588 255.528,248.190 255.267 C 247.792 255.006,247.466 254.869,247.466 254.962 M279.483 256.718 C 279.609 257.027,280.224 258.624,280.851 260.265 C 281.478 261.906,282.048 263.192,282.117 263.123 C 282.279 262.961,279.652 256.154,279.427 256.154 C 279.333 256.154,279.358 256.408,279.483 256.718 M220.085 257.347 C 220.513 257.665,221.454 258.257,222.177 258.663 C 222.900 259.069,223.142 259.141,222.715 258.823 C 222.287 258.506,221.346 257.914,220.623 257.508 C 219.900 257.102,219.658 257.030,220.085 257.347 M117.495 263.754 C 116.225 267.056,115.239 269.812,115.304 269.876 C 115.369 269.941,116.461 267.292,117.730 263.989 C 118.999 260.686,119.985 257.931,119.921 257.867 C 119.856 257.802,118.765 260.451,117.495 263.754 M229.606 263.162 C 229.783 263.351,231.738 264.617,233.950 265.975 C 238.761 268.929,238.710 268.900,238.294 268.455 C 238.117 268.266,236.163 267.000,233.950 265.642 C 229.139 262.688,229.190 262.718,229.606 263.162 M165.728 265.846 C 163.693 267.099,161.883 268.282,161.706 268.474 C 161.529 268.666,161.746 268.604,162.188 268.336 C 168.448 264.551,170.022 263.525,169.509 263.562 C 169.465 263.565,167.763 264.593,165.728 265.846 M133.494 266.542 C 131.429 267.820,129.619 268.997,129.472 269.159 C 129.113 269.551,129.260 269.467,133.628 266.787 C 136.829 264.823,137.784 264.158,137.329 264.208 C 137.285 264.213,135.559 265.263,133.494 266.542 M263.207 264.749 C 263.634 265.066,264.575 265.658,265.298 266.064 C 266.021 266.470,266.263 266.542,265.836 266.225 C 265.409 265.907,264.467 265.315,263.744 264.909 C 263.021 264.503,262.779 264.431,263.207 264.749 M97.392 268.752 C 96.566 270.905,95.943 272.719,96.007 272.784 C 96.072 272.849,96.802 271.141,97.629 268.989 C 98.456 266.836,99.079 265.022,99.014 264.957 C 98.949 264.891,98.219 266.599,97.392 268.752 M300.948 265.165 C 301.753 267.502,303.907 272.869,304.003 272.773 C 304.145 272.631,301.275 265.114,300.981 264.856 C 300.872 264.761,300.857 264.899,300.948 265.165 M283.048 265.809 C 283.167 266.251,283.398 266.830,283.562 267.096 C 283.769 267.431,283.795 267.333,283.645 266.774 C 283.527 266.331,283.296 265.752,283.132 265.487 C 282.924 265.151,282.899 265.249,283.048 265.809 M267.390 267.323 C 267.817 267.640,268.759 268.232,269.482 268.638 C 270.205 269.044,270.447 269.117,270.019 268.799 C 269.592 268.482,268.651 267.890,267.928 267.484 C 267.205 267.078,266.963 267.005,267.390 267.323 M278.842 274.342 C 279.195 274.630,279.775 275.008,280.129 275.182 L 280.772 275.498 280.129 274.974 C 279.775 274.686,279.195 274.308,278.842 274.134 L 278.198 273.818 278.842 274.342 M247.788 274.270 C 247.788 274.363,248.693 275.006,249.799 275.698 C 252.513 277.397,252.615 277.454,252.615 277.279 C 252.615 277.195,251.854 276.659,250.925 276.088 C 249.996 275.516,248.910 274.836,248.512 274.575 C 248.113 274.315,247.788 274.177,247.788 274.270 M117.619 276.298 C 116.026 277.282,114.578 278.248,114.401 278.443 C 114.224 278.639,114.472 278.555,114.954 278.256 C 115.435 277.958,116.919 277.052,118.252 276.242 C 120.299 275.000,121.007 274.474,120.595 274.503 C 120.551 274.506,119.212 275.314,117.619 276.298 M149.477 275.827 C 148.592 276.375,147.723 276.972,147.546 277.154 C 147.190 277.521,149.408 276.259,150.631 275.399 C 151.916 274.496,151.198 274.762,149.477 275.827 M281.549 276.012 C 281.977 276.329,282.918 276.921,283.641 277.327 C 284.364 277.733,284.606 277.806,284.179 277.488 C 283.751 277.170,282.810 276.579,282.087 276.173 C 281.364 275.766,281.122 275.694,281.549 276.012 M145.857 278.074 C 144.760 278.776,144.405 279.248,145.374 278.716 C 146.112 278.310,147.269 277.415,147.064 277.409 C 146.975 277.406,146.432 277.706,145.857 278.074 M253.419 277.882 C 253.773 278.170,254.352 278.548,254.706 278.722 L 255.350 279.038 254.706 278.514 C 254.352 278.226,253.773 277.848,253.419 277.674 L 252.776 277.358 253.419 277.882 M288.207 279.284 C 288.357 279.868,288.301 279.990,287.967 279.800 C 287.617 279.601,287.609 279.637,287.927 279.980 C 288.505 280.603,288.820 280.096,288.384 279.247 L 288.009 278.520 288.207 279.284 M136.927 283.550 C 136.042 284.098,135.173 284.695,134.996 284.877 C 134.640 285.244,136.857 283.982,138.081 283.122 C 139.365 282.219,138.647 282.485,136.927 283.550 M262.912 283.623 C 262.912 283.707,264.614 284.819,266.693 286.095 C 271.319 288.933,270.957 288.725,270.957 288.542 C 270.957 288.457,269.256 287.345,267.176 286.069 C 262.550 283.231,262.912 283.439,262.912 283.623 M131.939 286.606 C 130.611 287.416,129.381 288.235,129.204 288.426 C 129.027 288.618,129.244 288.557,129.686 288.292 C 133.784 285.833,134.513 285.374,134.513 285.254 C 134.513 285.038,134.486 285.052,131.939 286.606 M310.659 290.426 C 311.527 292.932,313.551 297.980,313.649 297.882 C 313.787 297.744,310.908 290.193,310.624 289.946 C 310.521 289.856,310.537 290.072,310.659 290.426 M87.570 294.328 C 87.187 295.331,86.927 296.206,86.993 296.272 C 87.060 296.338,87.428 295.572,87.812 294.570 C 88.195 293.567,88.455 292.692,88.389 292.626 C 88.322 292.559,87.954 293.326,87.570 294.328 M117.297 295.617 C 115.704 296.607,114.256 297.573,114.079 297.762 C 113.902 297.952,114.119 297.890,114.562 297.624 C 118.857 295.049,120.760 293.778,120.274 293.811 C 120.229 293.814,118.890 294.626,117.297 295.617 M280.262 294.354 C 280.690 294.672,281.631 295.264,282.354 295.670 C 283.077 296.076,283.319 296.148,282.891 295.831 C 282.464 295.513,281.523 294.921,280.800 294.515 C 280.077 294.109,279.835 294.037,280.262 294.354 M284.446 296.929 C 284.873 297.246,285.814 297.838,286.537 298.244 C 287.260 298.650,287.502 298.723,287.075 298.405 C 286.648 298.088,285.706 297.496,284.983 297.090 C 284.260 296.684,284.018 296.611,284.446 296.929 M85.961 298.512 C 85.578 299.514,85.318 300.389,85.384 300.455 C 85.451 300.522,85.819 299.756,86.203 298.753 C 86.586 297.750,86.846 296.876,86.780 296.809 C 86.713 296.743,86.345 297.509,85.961 298.512 M84.670 301.886 C 84.471 302.455,84.366 302.976,84.434 303.045 C 84.503 303.114,84.722 302.705,84.920 302.136 C 85.118 301.568,85.224 301.046,85.155 300.977 C 85.086 300.908,84.868 301.317,84.670 301.886 M294.421 303.043 C 294.849 303.360,295.790 303.952,296.513 304.358 C 297.236 304.764,297.478 304.837,297.051 304.519 C 296.623 304.202,295.682 303.610,294.959 303.204 C 294.236 302.798,293.994 302.725,294.421 303.043 M99.705 306.445 C 97.640 307.723,95.830 308.901,95.682 309.062 C 95.324 309.454,95.471 309.370,99.839 306.690 C 103.040 304.727,103.995 304.061,103.540 304.112 C 103.496 304.117,101.770 305.167,99.705 306.445 M298.605 305.617 C 299.032 305.935,299.974 306.527,300.697 306.933 C 301.420 307.339,301.662 307.411,301.234 307.094 C 300.807 306.776,299.866 306.184,299.142 305.778 C 298.419 305.372,298.178 305.300,298.605 305.617 M302.655 308.131 C 303.009 308.420,303.588 308.798,303.942 308.971 L 304.586 309.287 303.942 308.763 C 303.588 308.475,303.009 308.097,302.655 307.923 L 302.011 307.607 302.655 308.131 M310.539 312.882 C 310.539 312.973,311.661 313.740,313.033 314.588 C 314.405 315.435,315.853 316.336,316.251 316.589 C 316.649 316.842,316.975 316.975,316.975 316.884 C 316.975 316.794,315.853 316.027,314.481 315.179 C 313.109 314.332,311.661 313.431,311.263 313.178 C 310.865 312.925,310.539 312.792,310.539 312.882 M85.913 314.919 C 84.590 315.735,83.363 316.558,83.186 316.748 C 83.009 316.938,83.226 316.875,83.669 316.609 C 87.929 314.045,88.839 313.435,88.407 313.435 C 88.358 313.435,87.236 314.103,85.913 314.919 M78.877 317.011 C 78.679 317.580,78.573 318.101,78.642 318.170 C 78.711 318.239,78.929 317.830,79.128 317.261 C 79.326 316.692,79.432 316.171,79.363 316.102 C 79.294 316.033,79.076 316.442,78.877 317.011 M80.933 317.983 C 80.048 318.531,79.179 319.128,79.002 319.310 C 78.646 319.677,80.864 318.415,82.087 317.555 C 83.372 316.652,82.654 316.918,80.933 317.983 M317.913 317.524 C 318.340 317.842,319.282 318.434,320.005 318.840 C 320.728 319.246,320.970 319.318,320.542 319.000 C 320.115 318.683,319.174 318.091,318.451 317.685 C 317.728 317.279,317.486 317.207,317.913 317.524 M321.355 318.262 C 321.479 318.705,321.583 319.248,321.585 319.469 C 321.586 319.690,321.718 319.871,321.877 319.871 C 322.186 319.871,321.922 318.744,321.426 317.940 C 321.221 317.609,321.199 317.710,321.355 318.262 " stroke="none" fill="#4b8d9c" fill-rule="evenodd"></path><path id="path4" d="M199.417 52.198 C 198.605 54.141,198.513 54.936,199.293 53.260 L 200.042 51.652 200.958 53.986 C 201.461 55.269,201.929 56.264,201.997 56.196 C 202.144 56.048,200.496 51.773,200.135 51.366 C 199.996 51.210,199.673 51.584,199.417 52.198 M189.899 76.946 C 188.809 79.809,187.971 82.205,188.036 82.270 C 188.102 82.336,189.049 80.050,190.142 77.190 C 191.235 74.330,192.073 71.934,192.005 71.866 C 191.937 71.797,190.989 74.084,189.899 76.946 M208.004 72.245 C 208.891 74.805,210.898 79.797,210.999 79.695 C 211.143 79.551,208.278 72.037,207.980 71.775 C 207.871 71.679,207.882 71.891,208.004 72.245 M186.681 85.313 C 186.483 85.882,186.377 86.404,186.446 86.472 C 186.514 86.541,186.733 86.132,186.931 85.564 C 187.130 84.995,187.235 84.473,187.167 84.404 C 187.098 84.336,186.879 84.745,186.681 85.313 M217.658 97.345 C 218.587 100.031,222.161 109.080,222.256 108.986 C 222.397 108.845,217.931 97.137,217.638 96.880 C 217.527 96.782,217.536 96.991,217.658 97.345 M179.287 104.629 C 178.194 107.489,177.353 109.882,177.418 109.947 C 177.483 110.012,178.430 107.725,179.523 104.865 C 180.615 102.005,181.456 99.611,181.392 99.547 C 181.327 99.482,180.379 101.769,179.287 104.629 M228.218 124.859 C 228.990 127.147,232.144 135.139,232.238 135.046 C 232.377 134.906,228.537 124.797,228.249 124.546 C 228.142 124.453,228.128 124.594,228.218 124.859 M169.145 131.011 C 168.318 133.164,167.696 134.980,167.764 135.048 C 167.832 135.115,168.564 133.410,169.391 131.257 C 170.218 129.105,170.839 127.289,170.772 127.221 C 170.704 127.154,169.972 128.859,169.145 131.011 M166.583 137.556 C 166.413 137.999,160.674 138.060,112.400 138.133 C 66.885 138.201,58.527 138.282,59.170 138.648 C 59.603 138.895,59.838 138.930,59.714 138.729 C 59.555 138.472,74.193 138.375,113.060 138.375 C 169.125 138.375,168.110 138.397,166.902 137.189 C 166.831 137.118,166.687 137.283,166.583 137.556 M233.102 137.516 C 233.215 137.840,233.307 138.166,233.307 138.240 C 233.307 138.314,257.426 138.375,286.906 138.375 C 325.798 138.375,340.445 138.472,340.286 138.729 C 340.162 138.930,340.397 138.895,340.830 138.648 C 341.473 138.282,333.129 138.201,287.691 138.134 C 236.765 138.059,233.765 138.024,233.344 137.491 C 232.923 136.958,232.909 136.959,233.102 137.516 M64.360 141.694 C 64.360 141.779,66.786 143.336,69.751 145.154 C 72.715 146.972,75.467 148.669,75.865 148.925 C 76.263 149.181,76.589 149.314,76.589 149.222 C 76.589 149.129,74.381 147.692,71.681 146.028 C 64.715 141.733,64.360 141.523,64.360 141.694 M331.724 143.935 C 329.659 145.213,327.849 146.391,327.702 146.552 C 327.343 146.944,327.490 146.860,331.858 144.180 C 335.059 142.217,336.014 141.551,335.559 141.602 C 335.515 141.607,333.789 142.657,331.724 143.935 M325.503 147.750 C 324.618 148.297,323.749 148.895,323.572 149.077 C 323.216 149.443,325.433 148.182,326.657 147.322 C 327.941 146.419,327.223 146.685,325.503 147.750 M84.312 153.926 C 84.312 154.024,85.579 154.883,87.128 155.835 C 90.845 158.121,90.748 158.066,90.748 157.887 C 90.748 157.801,89.658 157.069,88.325 156.260 C 86.991 155.450,85.543 154.554,85.106 154.268 C 84.670 153.982,84.312 153.828,84.312 153.926 M312.574 155.687 C 310.950 156.700,309.502 157.664,309.356 157.830 C 309.210 157.996,309.453 157.910,309.895 157.640 C 310.338 157.369,311.752 156.526,313.039 155.766 C 314.969 154.626,316.112 153.773,315.626 153.834 C 315.572 153.841,314.198 154.675,312.574 155.687 M97.345 162.033 C 97.699 162.321,98.278 162.699,98.632 162.873 L 99.276 163.189 98.632 162.665 C 98.278 162.377,97.699 161.999,97.345 161.825 L 96.702 161.509 97.345 162.033 M99.437 163.257 C 99.437 163.343,100.921 164.321,102.735 165.430 C 104.549 166.540,106.360 167.657,106.758 167.912 C 107.156 168.168,107.482 168.296,107.482 168.198 C 107.482 168.044,105.451 166.747,100.644 163.833 C 99.980 163.430,99.437 163.171,99.437 163.257 M296.702 165.444 C 294.666 166.697,292.856 167.874,292.679 168.060 C 292.240 168.520,292.395 168.432,296.782 165.741 C 300.000 163.767,300.915 163.128,300.483 163.159 C 300.438 163.163,298.737 164.191,296.702 165.444 M114.212 172.391 C 114.640 172.709,115.581 173.301,116.304 173.707 C 117.027 174.113,117.269 174.185,116.842 173.868 C 116.414 173.550,115.473 172.958,114.750 172.552 C 114.027 172.146,113.785 172.074,114.212 172.391 M285.197 172.523 C 284.100 173.225,283.745 173.697,284.714 173.164 C 285.453 172.759,286.609 171.864,286.404 171.858 C 286.315 171.855,285.772 172.155,285.197 172.523 M280.772 175.252 C 279.179 176.236,277.731 177.202,277.554 177.397 C 277.377 177.593,277.595 177.536,278.037 177.270 C 282.331 174.696,284.237 173.423,283.749 173.457 C 283.705 173.460,282.365 174.268,280.772 175.252 M118.396 174.966 C 118.823 175.283,119.764 175.875,120.487 176.281 C 121.210 176.687,121.452 176.760,121.025 176.442 C 120.598 176.125,119.656 175.533,118.933 175.127 C 118.210 174.721,117.968 174.648,118.396 174.966 M264.521 185.226 C 261.778 186.917,259.389 188.462,259.212 188.658 C 259.035 188.855,259.252 188.793,259.694 188.521 C 260.137 188.249,262.562 186.765,265.084 185.222 C 268.987 182.836,270.044 182.114,269.590 182.146 C 269.545 182.149,267.265 183.535,264.521 185.226 M131.939 183.210 C 131.939 183.364,133.970 184.661,138.777 187.575 C 139.441 187.977,139.984 188.237,139.984 188.151 C 139.984 188.065,138.500 187.087,136.685 185.978 C 134.871 184.868,133.061 183.751,132.663 183.496 C 132.265 183.240,131.939 183.112,131.939 183.210 M259.111 205.310 C 259.883 207.598,263.037 215.590,263.131 215.496 C 263.270 215.357,259.430 205.248,259.142 204.996 C 259.035 204.903,259.021 205.044,259.111 205.310 M138.252 211.462 C 137.425 213.614,136.803 215.430,136.871 215.498 C 136.939 215.566,137.671 213.860,138.498 211.708 C 139.325 209.556,139.946 207.739,139.879 207.672 C 139.811 207.604,139.079 209.310,138.252 211.462 M197.808 226.260 C 196.624 226.970,195.656 227.631,195.656 227.730 C 195.656 227.829,195.981 227.700,196.380 227.443 C 196.778 227.187,197.761 226.595,198.563 226.129 L 200.023 225.281 201.138 225.949 C 203.894 227.600,204.549 227.935,203.782 227.305 C 203.384 226.977,202.361 226.318,201.510 225.840 L 199.961 224.971 197.808 226.260 M212.068 232.447 C 212.068 232.545,213.914 233.766,216.171 235.159 C 222.179 238.868,222.687 239.167,222.687 238.994 C 222.687 238.907,220.627 237.574,218.109 236.031 C 215.591 234.488,213.202 233.010,212.799 232.747 C 212.397 232.483,212.068 232.348,212.068 232.447 M128.120 237.855 C 127.027 240.715,126.185 243.107,126.249 243.170 C 126.312 243.234,127.264 240.951,128.363 238.098 C 129.463 235.245,130.305 232.853,130.235 232.782 C 130.164 232.712,129.213 234.995,128.120 237.855 M269.790 233.146 C 270.677 235.706,272.684 240.698,272.785 240.596 C 272.929 240.452,270.065 232.938,269.766 232.676 C 269.657 232.580,269.668 232.792,269.790 233.146 M183.105 235.275 C 181.070 236.528,179.260 237.705,179.083 237.891 C 178.644 238.351,178.799 238.263,183.186 235.572 C 186.404 233.598,187.319 232.960,186.887 232.990 C 186.842 232.994,185.141 234.022,183.105 235.275 M227.192 241.767 C 227.192 241.860,229.256 243.205,231.778 244.758 C 234.300 246.310,236.689 247.788,237.088 248.042 C 237.486 248.297,237.812 248.430,237.812 248.337 C 237.812 248.245,235.748 246.899,233.226 245.347 C 230.704 243.795,228.315 242.317,227.916 242.062 C 227.518 241.808,227.192 241.675,227.192 241.767 M273.716 243.282 C 273.835 243.725,274.066 244.304,274.230 244.570 C 274.437 244.905,274.462 244.807,274.313 244.248 C 274.194 243.805,273.963 243.226,273.799 242.961 C 273.592 242.625,273.567 242.723,273.716 243.282 M166.372 245.572 C 164.336 246.826,162.526 248.003,162.349 248.188 C 161.910 248.649,162.065 248.561,166.452 245.870 C 169.670 243.896,170.585 243.257,170.153 243.288 C 170.109 243.291,168.407 244.319,166.372 245.572 M125.539 244.605 C 125.340 245.174,125.234 245.696,125.303 245.765 C 125.372 245.833,125.591 245.424,125.789 244.856 C 125.987 244.287,126.093 243.765,126.024 243.696 C 125.955 243.628,125.737 244.037,125.539 244.605 M150.066 255.603 C 147.735 257.057,145.707 258.378,145.561 258.539 C 145.211 258.923,145.480 258.766,150.362 255.751 C 153.813 253.619,154.880 252.876,154.385 252.948 C 154.340 252.955,152.397 254.149,150.066 255.603 M245.696 253.186 C 245.873 253.375,247.828 254.641,250.040 256.000 C 252.253 257.358,254.171 258.536,254.304 258.618 C 254.437 258.700,254.545 258.695,254.545 258.608 C 254.545 258.521,252.699 257.309,250.442 255.915 C 245.518 252.872,245.269 252.729,245.696 253.186 M279.385 258.085 C 280.157 260.373,283.311 268.365,283.404 268.272 C 283.544 268.132,279.703 258.024,279.415 257.772 C 279.309 257.679,279.295 257.820,279.385 258.085 M117.978 264.237 C 117.151 266.390,116.530 268.206,116.598 268.274 C 116.665 268.341,117.397 266.636,118.224 264.483 C 119.052 262.331,119.673 260.515,119.605 260.447 C 119.538 260.380,118.805 262.085,117.978 264.237 M133.332 265.900 C 130.115 267.887,127.364 269.644,127.217 269.804 C 126.848 270.208,126.885 270.186,133.467 266.144 C 138.462 263.077,139.744 262.221,139.260 262.278 C 139.216 262.283,136.548 263.913,133.332 265.900 M260.660 262.377 C 260.660 262.500,270.757 268.779,271.762 269.282 C 273.516 270.159,264.277 264.277,260.901 262.367 C 260.768 262.292,260.660 262.297,260.660 262.377 M117.940 275.343 C 115.421 276.910,113.415 278.353,114.883 277.543 C 116.360 276.729,120.998 273.793,120.998 273.673 C 120.998 273.445,120.966 273.462,117.940 275.343 M280.611 274.602 C 280.611 274.790,286.155 278.283,286.921 278.577 C 287.167 278.672,287.369 278.613,287.369 278.447 C 287.369 278.280,287.188 278.143,286.967 278.141 C 286.623 278.138,283.810 276.518,281.335 274.897 C 280.937 274.637,280.611 274.503,280.611 274.602 M113.612 278.021 C 113.354 278.183,113.029 278.245,112.887 278.158 C 112.746 278.070,112.631 278.152,112.631 278.340 C 112.631 278.812,113.039 278.766,113.776 278.208 C 114.466 277.687,114.349 277.554,113.612 278.021 " stroke="none" fill="#243454" fill-rule="evenodd"></path></g>
</svg>